<mxfile host="app.diagrams.net" modified="2023-06-14T07:36:37.080Z" agent="Mozilla/5.0 (Windows NT 10.0; Win64; x64) AppleWebKit/537.36 (KHTML, like Gecko) Chrome/114.0.0.0 Safari/537.36" etag="RqgyPpXndGds-AfEzo8w" version="21.3.7" type="device">
  <diagram name="ページ1" id="9WGfGwtxWvS-aRMD16Bm">
    <mxGraphModel dx="1050" dy="549" grid="1" gridSize="10" guides="1" tooltips="1" connect="1" arrows="1" fold="1" page="1" pageScale="1" pageWidth="827" pageHeight="1169" math="0" shadow="0">
      <root>
        <mxCell id="0" />
        <mxCell id="1" parent="0" />
        <mxCell id="QXRCJM1zQSQKNdwSZJhF-3" value="" style="endArrow=none;dashed=1;html=1;rounded=0;" parent="1" edge="1">
          <mxGeometry width="50" height="50" relative="1" as="geometry">
            <mxPoint x="40" y="357.5" as="sourcePoint" />
            <mxPoint x="680" y="357.5" as="targetPoint" />
          </mxGeometry>
        </mxCell>
        <mxCell id="QXRCJM1zQSQKNdwSZJhF-5" value="メニューA" style="shape=cylinder3;whiteSpace=wrap;html=1;boundedLbl=1;backgroundOutline=1;size=15;" parent="1" vertex="1">
          <mxGeometry x="160" y="90" width="100" height="80" as="geometry" />
        </mxCell>
        <mxCell id="QXRCJM1zQSQKNdwSZJhF-6" value="メニューB" style="shape=cylinder3;whiteSpace=wrap;html=1;boundedLbl=1;backgroundOutline=1;size=15;" parent="1" vertex="1">
          <mxGeometry x="294" y="90" width="100" height="80" as="geometry" />
        </mxCell>
        <mxCell id="QXRCJM1zQSQKNdwSZJhF-7" value="メニューA" style="shape=cylinder3;whiteSpace=wrap;html=1;boundedLbl=1;backgroundOutline=1;size=15;" parent="1" vertex="1">
          <mxGeometry x="500" y="70" width="100" height="80" as="geometry" />
        </mxCell>
        <mxCell id="QXRCJM1zQSQKNdwSZJhF-8" value="メニューC" style="shape=cylinder3;whiteSpace=wrap;html=1;boundedLbl=1;backgroundOutline=1;size=15;" parent="1" vertex="1">
          <mxGeometry x="480" y="90" width="100" height="80" as="geometry" />
        </mxCell>
        <mxCell id="QXRCJM1zQSQKNdwSZJhF-9" value="" style="rounded=1;whiteSpace=wrap;html=1;fillColor=none;dashed=1;strokeWidth=3;" parent="1" vertex="1">
          <mxGeometry x="130" y="70" width="300" height="120" as="geometry" />
        </mxCell>
        <mxCell id="QXRCJM1zQSQKNdwSZJhF-10" value="" style="shape=callout;whiteSpace=wrap;html=1;perimeter=calloutPerimeter;size=45;position=0.25;base=40;position2=0.19;rotation=90;align=center;rounded=1;" parent="1" vertex="1">
          <mxGeometry x="410" y="150" width="65" height="170" as="geometry" />
        </mxCell>
        <mxCell id="QXRCJM1zQSQKNdwSZJhF-12" value="エクスポート" style="text;strokeColor=none;align=center;fillColor=none;html=1;verticalAlign=middle;whiteSpace=wrap;rounded=0;" parent="1" vertex="1">
          <mxGeometry x="410" y="220" width="110" height="30" as="geometry" />
        </mxCell>
        <mxCell id="QXRCJM1zQSQKNdwSZJhF-13" value="Kymファイル" style="shape=document;whiteSpace=wrap;html=1;boundedLbl=1;" parent="1" vertex="1">
          <mxGeometry x="210" y="222.5" width="140" height="80" as="geometry" />
        </mxCell>
        <mxCell id="QXRCJM1zQSQKNdwSZJhF-16" value="" style="html=1;shadow=0;dashed=0;align=center;verticalAlign=middle;shape=mxgraph.arrows2.arrow;dy=0.6;dx=26.2;direction=south;notch=0;" parent="1" vertex="1">
          <mxGeometry x="245" y="170" width="70" height="50" as="geometry" />
        </mxCell>
        <mxCell id="QXRCJM1zQSQKNdwSZJhF-44" value="メニューA" style="shape=cylinder3;whiteSpace=wrap;html=1;boundedLbl=1;backgroundOutline=1;size=15;" parent="1" vertex="1">
          <mxGeometry x="160" y="553.75" width="100" height="80" as="geometry" />
        </mxCell>
        <mxCell id="QXRCJM1zQSQKNdwSZJhF-45" value="メニューB" style="shape=cylinder3;whiteSpace=wrap;html=1;boundedLbl=1;backgroundOutline=1;size=15;" parent="1" vertex="1">
          <mxGeometry x="294" y="553.75" width="100" height="80" as="geometry" />
        </mxCell>
        <mxCell id="QXRCJM1zQSQKNdwSZJhF-46" value="メニューA" style="shape=cylinder3;whiteSpace=wrap;html=1;boundedLbl=1;backgroundOutline=1;size=15;" parent="1" vertex="1">
          <mxGeometry x="500" y="530" width="100" height="80" as="geometry" />
        </mxCell>
        <mxCell id="QXRCJM1zQSQKNdwSZJhF-47" value="メニューC" style="shape=cylinder3;whiteSpace=wrap;html=1;boundedLbl=1;backgroundOutline=1;size=15;" parent="1" vertex="1">
          <mxGeometry x="480" y="550" width="100" height="80" as="geometry" />
        </mxCell>
        <mxCell id="QXRCJM1zQSQKNdwSZJhF-48" value="" style="rounded=1;whiteSpace=wrap;html=1;fillColor=none;dashed=1;strokeWidth=3;" parent="1" vertex="1">
          <mxGeometry x="130" y="533.75" width="300" height="120" as="geometry" />
        </mxCell>
        <mxCell id="QXRCJM1zQSQKNdwSZJhF-49" value="" style="shape=callout;whiteSpace=wrap;html=1;perimeter=calloutPerimeter;size=45;position=0.25;base=40;position2=1;rotation=90;align=center;rounded=1;" parent="1" vertex="1">
          <mxGeometry x="410" y="390" width="65" height="170" as="geometry" />
        </mxCell>
        <mxCell id="QXRCJM1zQSQKNdwSZJhF-50" value="インポート" style="text;strokeColor=none;align=center;fillColor=none;html=1;verticalAlign=middle;whiteSpace=wrap;rounded=0;" parent="1" vertex="1">
          <mxGeometry x="410" y="460" width="110" height="30" as="geometry" />
        </mxCell>
        <mxCell id="QXRCJM1zQSQKNdwSZJhF-51" value="Kymファイル" style="shape=document;whiteSpace=wrap;html=1;boundedLbl=1;" parent="1" vertex="1">
          <mxGeometry x="210" y="427" width="140" height="80" as="geometry" />
        </mxCell>
        <mxCell id="QXRCJM1zQSQKNdwSZJhF-52" value="" style="html=1;shadow=0;dashed=0;align=center;verticalAlign=middle;shape=mxgraph.arrows2.arrow;dy=0.6;dx=26.2;direction=south;notch=0;" parent="1" vertex="1">
          <mxGeometry x="245" y="505" width="70" height="50" as="geometry" />
        </mxCell>
        <mxCell id="QXRCJM1zQSQKNdwSZJhF-17" value="" style="html=1;shadow=0;dashed=0;align=center;verticalAlign=middle;shape=mxgraph.arrows2.arrow;dy=0.6;dx=26.2;direction=south;notch=0;fillColor=#647687;fontColor=#ffffff;strokeColor=#314354;" parent="1" vertex="1">
          <mxGeometry x="240" y="320" width="70" height="60" as="geometry" />
        </mxCell>
        <mxCell id="QXRCJM1zQSQKNdwSZJhF-60" value="選択したメニュー" style="text;html=1;align=center;verticalAlign=middle;resizable=0;points=[];autosize=1;strokeColor=none;fillColor=none;" parent="1" vertex="1">
          <mxGeometry x="220" y="40" width="120" height="30" as="geometry" />
        </mxCell>
        <mxCell id="MfBM_OLLFmklFQq7iMMv-1" value="" style="rounded=0;whiteSpace=wrap;html=1;fillColor=none;" vertex="1" parent="1">
          <mxGeometry x="100" y="40" width="530" height="270" as="geometry" />
        </mxCell>
        <mxCell id="MfBM_OLLFmklFQq7iMMv-2" value="ワークスペースA" style="text;html=1;align=center;verticalAlign=middle;resizable=0;points=[];autosize=1;strokeColor=none;fillColor=none;" vertex="1" parent="1">
          <mxGeometry x="100" y="10" width="120" height="30" as="geometry" />
        </mxCell>
        <mxCell id="MfBM_OLLFmklFQq7iMMv-4" value="" style="rounded=0;whiteSpace=wrap;html=1;fillColor=none;" vertex="1" parent="1">
          <mxGeometry x="100" y="400" width="530" height="270" as="geometry" />
        </mxCell>
        <mxCell id="MfBM_OLLFmklFQq7iMMv-5" value="ワークスペースB" style="text;html=1;align=center;verticalAlign=middle;resizable=0;points=[];autosize=1;strokeColor=none;fillColor=none;" vertex="1" parent="1">
          <mxGeometry x="100" y="370" width="120" height="30" as="geometry" />
        </mxCell>
      </root>
    </mxGraphModel>
  </diagram>
</mxfile>
